<svg xmlns="http://www.w3.org/2000/svg" id="SvgjsSvg301989" width="2640" height="598.0234090051838" version="1.1" xmlns:xlink="http://www.w3.org/1999/xlink" xmlns:svgjs="http://svgjs.com/svgjs"><defs id="SvgjsDefs301990"></defs><g id="SvgjsG301991" transform="translate(120, 120.00000000000003) scale(24)" opacity="1"><defs id="SvgjsDefs105468"></defs><g id="SvgjsG105469" transform="scale(0.10069638272146943)" opacity="1"><g id="SvgjsG105470" class="HJSSzh13f" transform="translate(-7.723338959851708, -2.7877167271709453) scale(1.5371980345351575)" light-content="false" fill="#2b7d4d"><path d="M89.483 28.652c-6.453-3.726-10.658-.55-15.981 3.471-2.467 1.863-5.263 3.974-8.823 5.867C50.1 45.74 41.264 57.878 41.043 70.459c-.157 8.945 4.243 16.669 12.071 21.188 7.828 4.52 16.715 4.468 24.384-.141 10.786-6.481 16.88-20.202 16.302-36.702-.142-4.03.289-7.507.669-10.575.82-6.621 1.469-11.851-4.986-15.577zm1.774 15.179c-.396 3.188-.842 6.8-.692 11.086.536 15.307-4.971 27.948-14.733 33.815-6.63 3.984-14.32 4.024-21.099.111S44.145 78.25 44.28 70.516c.2-11.388 8.393-22.478 21.918-29.667 3.787-2.013 6.691-4.207 9.255-6.142 5.42-4.094 8.003-5.797 12.412-3.251 4.41 2.546 4.227 5.633 3.392 12.375z"></path><path d="M75.367 53.103c-4.189-2.419-13.966 1.614-17.908 8.164-3.306 5.491-2.544 12.731 3.747 16.364 6.292 3.633 12.943.672 16.046-4.937 3.701-6.69 2.306-17.173-1.885-19.591zM60.283 37.631c-5.938-10.46-5.737-19.923-13.711-21.001-.073-5.157 1.016-7.841 1.931-9.062.197-.272.321-.601.321-.962 0-.887-.719-1.606-1.606-1.606-.526 0-.988.256-1.28.647-.02.016-.035.04-.05.06-.662.899-1.574 2.372-2.261 4.581l-5.35 1.484C17.511-1.271 5.833 20.416 5.036 22.981c-.044.14.04.28.186.309 2.577.485 24.668 7.715 33.539-10.265l4.468-1.239c-.311 1.382-.519 3-.553 4.878-8.157 1.254-7.568 11.561-14.428 22.539-16.875 26.994-2.209 45.791 14.99 46.821-3.138-4.437-4.795-9.784-4.693-15.609.219-12.531 8.279-24.575 21.738-32.784z"></path></g><g id="SvgjsG105471" class="text" transform="translate(157.2743323002412, 102.15238293328521)" light-content="false" fill="#2b7d4d"><path d="M49.95-52.54C46.46-54.67 42.41-55.73 37.80-55.73C33.91-55.73 30.33-54.83 27.05-53.03C23.78-51.23 21.31-48.74 19.66-45.58L19.44-54.43L9.29-54.43C9.36-53.28 9.40-51.59 9.40-49.36C9.40-45.47 9.25-42.05 8.96-39.10L4.00 23.33L14.80 23.33L17.39-9.18C19.04-6.01 21.42-3.56 24.52-1.84C27.61-0.11 31.21 0.76 35.32 0.76C40.36 0.76 44.82-0.50 48.71-3.02C52.60-5.54 55.62-9.09 57.78-13.66C59.94-18.23 61.02-23.51 61.02-29.48C61.02-34.81 60.05-39.46 58.10-43.42C56.16-47.38 53.44-50.42 49.95-52.54ZM45.74-13.50C42.89-9.68 38.95-7.78 33.91-7.78C29.02-7.78 25.25-9.31 22.63-12.37C20.00-15.43 18.68-19.87 18.68-25.70C18.68-32.33 20.11-37.55 22.95-41.36C25.79-45.18 29.74-47.09 34.78-47.09C39.60-47.09 43.34-45.52 46.01-42.39C48.67-39.26 50.00-34.85 50.00-29.16C50.00-22.54 48.58-17.32 45.74-13.50ZM125.71-54.43L114.91-54.43L114.26-45.58C112.61-48.82 110.23-51.32 107.14-53.08C104.04-54.85 100.40-55.73 96.23-55.73C91.19-55.73 86.74-54.47 82.89-51.95C79.04-49.43 76.03-45.88 73.87-41.31C71.71-36.74 70.63-31.46 70.63-25.49C70.63-20.16 71.59-15.52 73.49-11.56C75.40-7.60 78.10-4.55 81.59-2.43C85.09-0.31 89.14 0.76 93.74 0.76C97.49 0.76 100.93-0.04 104.06-1.62C107.19-3.20 109.62-5.44 111.35-8.32L110.70 0L121.39 0ZM108.65-13.55C105.77-9.70 101.84-7.78 96.88-7.78C92.05-7.78 88.29-9.34 85.59-12.47C82.89-15.61 81.54-20.02 81.54-25.70C81.54-32.33 82.98-37.55 85.86-41.36C88.74-45.18 92.70-47.09 97.74-47.09C102.64-47.09 106.40-45.56 109.03-42.50C111.65-39.44 112.97-34.99 112.97-29.16C112.97-22.61 111.53-17.41 108.65-13.55ZM183.82-50.87C180.65-54.11 176.00-55.73 169.88-55.73C165.78-55.73 162.09-54.85 158.81-53.08C155.54-51.32 153.00-48.89 151.20-45.79L150.98-54.43L140.83-54.43C140.90-53.28 140.94-51.59 140.94-49.36C140.94-45.47 140.80-42.05 140.51-39.10L137.38 0L148.28 0L150.77-31.00C151.13-35.96 152.68-39.85 155.41-42.66C158.15-45.47 161.86-46.87 166.54-46.87C173.95-46.87 177.66-42.98 177.66-35.21C177.66-34.20 177.62-33.44 177.55-32.94L174.96 0L185.76 0L188.46-33.59C188.53-34.31 188.57-35.32 188.57-36.61C188.57-42.88 186.98-47.63 183.82-50.87ZM247.86-50.87C244.69-54.11 240.05-55.73 233.93-55.73C229.82-55.73 226.13-54.85 222.86-53.08C219.58-51.32 217.04-48.89 215.24-45.79L215.03-54.43L204.88-54.43C204.95-53.28 204.98-51.59 204.98-49.36C204.98-45.47 204.84-42.05 204.55-39.10L201.42 0L212.33 0L214.81-31.00C215.17-35.96 216.72-39.85 219.46-42.66C222.19-45.47 225.90-46.87 230.58-46.87C238.00-46.87 241.70-42.98 241.70-35.21C241.70-34.20 241.67-33.44 241.60-32.94L239.00 0L249.80 0L252.50-33.59C252.58-34.31 252.61-35.32 252.61-36.61C252.61-42.88 251.03-47.63 247.86-50.87ZM319.57-54.43L308.77-54.43L308.12-45.58C306.47-48.82 304.09-51.32 301.00-53.08C297.90-54.85 294.26-55.73 290.09-55.73C285.05-55.73 280.60-54.47 276.75-51.95C272.90-49.43 269.89-45.88 267.73-41.31C265.57-36.74 264.49-31.46 264.49-25.49C264.49-20.16 265.45-15.52 267.35-11.56C269.26-7.60 271.96-4.55 275.45-2.43C278.95-0.31 283.00 0.76 287.60 0.76C291.35 0.76 294.79-0.04 297.92-1.62C301.05-3.20 303.48-5.44 305.21-8.32L304.56 0L315.25 0ZM302.51-13.55C299.63-9.70 295.70-7.78 290.74-7.78C285.91-7.78 282.15-9.34 279.45-12.47C276.75-15.61 275.40-20.02 275.40-25.70C275.40-32.33 276.84-37.55 279.72-41.36C282.60-45.18 286.56-47.09 291.60-47.09C296.50-47.09 300.26-45.56 302.89-42.50C305.51-39.44 306.83-34.99 306.83-29.16C306.83-22.61 305.39-17.41 302.51-13.55ZM331.24 0L342.14 0L346.46-54.43L335.56-54.43ZM336.42-78.19L335.56-66.74L348.30-66.74L349.16-78.19ZM410.83-54.32L397.01-54.32L371.30-29.92L375.19-79.49L364.28-79.49L358.02 0L368.93 0L370.98-25.92L395.28 0L408.78 0L382.86-28.08ZM469.48-54.43L458.68-54.43L458.03-45.58C456.37-48.82 454.00-51.32 450.90-53.08C447.80-54.85 444.17-55.73 439.99-55.73C434.95-55.73 430.51-54.47 426.65-51.95C422.80-49.43 419.80-45.88 417.64-41.31C415.48-36.74 414.40-31.46 414.40-25.49C414.40-20.16 415.35-15.52 417.26-11.56C419.17-7.60 421.87-4.55 425.36-2.43C428.85-0.31 432.90 0.76 437.51 0.76C441.25 0.76 444.69-0.04 447.82-1.62C450.95-3.20 453.38-5.44 455.11-8.32L454.46 0L465.16 0ZM452.41-13.55C449.53-9.70 445.61-7.78 440.64-7.78C435.82-7.78 432.05-9.34 429.35-12.47C426.65-15.61 425.30-20.02 425.30-25.70C425.30-32.33 426.74-37.55 429.62-41.36C432.50-45.18 436.46-47.09 441.50-47.09C446.40-47.09 450.16-45.56 452.79-42.50C455.42-39.44 456.73-34.99 456.73-29.16C456.73-22.61 455.29-17.41 452.41-13.55ZM537.19-79.49L526.28-79.49L523.69-45.68C522.11-48.92 519.77-51.41 516.67-53.14C513.58-54.86 509.94-55.73 505.76-55.73C500.72-55.73 496.26-54.47 492.37-51.95C488.48-49.43 485.46-45.86 483.30-41.26C481.14-36.65 480.06-31.36 480.06-25.38C480.06-20.12 481.03-15.52 482.98-11.56C484.92-7.60 487.64-4.55 491.13-2.43C494.62-0.31 498.67 0.76 503.28 0.76C506.95 0.76 510.34-0.02 513.43-1.57C516.53-3.11 518.98-5.29 520.78-8.10L520.13 0L530.82 0ZM518.13-13.55C515.29-9.70 511.38-7.78 506.41-7.78C501.52-7.78 497.74-9.36 495.07-12.53C492.41-15.70 491.08-20.12 491.08-25.81C491.08-32.44 492.52-37.64 495.40-41.42C498.28-45.20 502.24-47.09 507.28-47.09C512.17-47.09 515.92-45.56 518.51-42.50C521.10-39.44 522.40-34.99 522.40-29.16C522.40-22.61 520.97-17.41 518.13-13.55ZM598.54-54.43L587.74-54.43L585.25-23.87C584.89-18.90 583.36-15.01 580.66-12.20C577.96-9.40 574.38-7.99 569.92-7.99C562.64-7.99 559.01-11.88 559.01-19.66C559.01-20.66 559.04-21.42 559.12-21.92L561.82-54.43L550.91-54.43L548.32-21.28C548.24-20.56 548.21-19.48 548.21-18.04C548.21-11.92 549.77-7.25 552.91-4.05C556.04-0.85 560.59 0.76 566.57 0.76C570.31 0.76 573.75-0.02 576.88-1.57C580.01-3.11 582.48-5.33 584.28-8.21L583.63 0L594.32 0ZM609.77-12.96L608.80 0L621.76 0L622.73-12.96ZM647.35-2.48C651.31-0.32 655.92 0.76 661.18 0.76C664.85 0.76 668.36 0.14 671.71-1.08C675.05-2.30 677.92-4.00 680.29-6.16L677.48-13.93C674.82-11.84 672.28-10.31 669.87-9.34C667.46-8.37 664.85-7.88 662.04-7.88C657.07-7.88 653.20-9.43 650.43-12.53C647.66-15.62 646.27-19.94 646.27-25.49C646.27-32.26 647.78-37.53 650.81-41.31C653.83-45.09 658.12-46.98 663.66-46.98C666.47-46.98 669.15-46.48 671.71-45.47C674.26-44.46 676.91-42.95 679.64-40.93L683.64-48.71C681.12-50.94 678.15-52.67 674.73-53.89C671.31-55.12 667.55-55.73 663.44-55.73C657.68-55.73 652.66-54.50 648.38-52.06C644.09-49.61 640.80-46.12 638.50-41.58C636.19-37.04 635.04-31.72 635.04-25.60C635.04-20.34 636.10-15.71 638.23-11.72C640.35-7.72 643.39-4.64 647.35-2.48ZM701.24-2.48C705.20-0.32 709.81 0.76 715.07 0.76C720.47 0.76 725.20-0.47 729.27-2.92C733.34-5.36 736.51-8.86 738.77-13.39C741.04-17.93 742.18-23.22 742.18-29.27C742.18-34.60 741.11-39.24 738.99-43.20C736.87-47.16 733.84-50.24 729.92-52.43C725.99-54.63 721.40-55.73 716.15-55.73C710.75-55.73 706.00-54.50 701.89-52.06C697.79-49.61 694.60-46.12 692.33-41.58C690.07-37.04 688.93-31.75 688.93-25.70C688.93-20.38 689.99-15.71 692.12-11.72C694.24-7.72 697.28-4.64 701.24-2.48ZM727.00-13.72C724.23-9.76 720.29-7.78 715.18-7.78C710.14-7.78 706.34-9.27 703.78-12.26C701.23-15.25 699.95-19.62 699.95-25.38C699.95-32.00 701.35-37.28 704.16-41.20C706.97-45.13 710.96-47.09 716.15-47.09C720.97-47.09 724.68-45.58 727.27-42.55C729.86-39.53 731.16-35.21 731.16-29.59C731.16-22.97 729.77-17.68 727.00-13.72ZM831.44-50.92C828.52-54.13 824.22-55.73 818.53-55.73C814.50-55.73 810.88-54.86 807.68-53.14C804.47-51.41 801.90-48.92 799.96-45.68C798.80-49.00 796.88-51.50 794.18-53.19C791.48-54.88 788.08-55.73 783.97-55.73C776.05-55.73 770.26-52.49 766.58-46.01L766.37-54.43L756.22-54.43C756.29-53.50 756.32-52.06 756.32-50.11C756.32-47.52 756.18-43.85 755.89-39.10L752.76 0L763.67 0L766.04-30.67C766.40-35.93 767.83-39.94 770.31-42.71C772.79-45.49 776.16-46.87 780.41-46.87C783.72-46.87 786.19-45.94 787.81-44.06C789.43-42.19 790.24-39.31 790.24-35.42C790.24-34.42 790.20-33.62 790.13-33.05L787.43 0L798.34 0L800.71-30.67C801.14-35.93 802.58-39.94 805.03-42.71C807.48-45.49 810.83-46.87 815.08-46.87C818.39-46.87 820.85-45.95 822.47-44.12C824.09-42.28 824.90-39.49 824.90-35.75C824.90-34.60 824.87-33.73 824.80-33.16L822.20 0L833.00 0L835.70-33.59C835.78-34.31 835.81-35.39 835.81-36.83C835.81-43.02 834.35-47.72 831.44-50.92Z"></path></g></g></g></svg>